<svg id="visual" viewBox="0 0 960 540" width="960" height="540" xmlns="http://www.w3.org/2000/svg" xmlns:xlink="http://www.w3.org/1999/xlink" version="1.1"><rect x="0" y="0" width="960" height="540" fill="#001220"></rect><path d="M0 354L22.8 353.8C45.7 353.7 91.3 353.3 137 355C182.7 356.7 228.3 360.3 274 356C319.7 351.7 365.3 339.3 411.2 338.2C457 337 503 347 548.8 358.3C594.7 369.7 640.3 382.3 686 389C731.7 395.7 777.3 396.3 823 392C868.7 387.7 914.3 378.3 937.2 373.7L960 369L960 541L937.2 541C914.3 541 868.7 541 823 541C777.3 541 731.7 541 686 541C640.3 541 594.7 541 548.8 541C503 541 457 541 411.2 541C365.3 541 319.7 541 274 541C228.3 541 182.7 541 137 541C91.3 541 45.7 541 22.8 541L0 541Z" fill="#4facf7"></path><path d="M0 385L22.8 391.7C45.7 398.3 91.3 411.7 137 418.3C182.7 425 228.3 425 274 419.2C319.7 413.3 365.3 401.7 411.2 402.8C457 404 503 418 548.8 413.2C594.7 408.3 640.3 384.7 686 372C731.7 359.3 777.3 357.7 823 362C868.7 366.3 914.3 376.7 937.2 381.8L960 387L960 541L937.2 541C914.3 541 868.7 541 823 541C777.3 541 731.7 541 686 541C640.3 541 594.7 541 548.8 541C503 541 457 541 411.2 541C365.3 541 319.7 541 274 541C228.3 541 182.7 541 137 541C91.3 541 45.7 541 22.8 541L0 541Z" fill="#2b9dfc"></path><path d="M0 451L22.8 450.3C45.7 449.7 91.3 448.3 137 445.8C182.7 443.3 228.3 439.7 274 438.3C319.7 437 365.3 438 411.2 433.7C457 429.3 503 419.7 548.8 416.5C594.7 413.3 640.3 416.7 686 422.8C731.7 429 777.3 438 823 437.3C868.7 436.7 914.3 426.3 937.2 421.2L960 416L960 541L937.2 541C914.3 541 868.7 541 823 541C777.3 541 731.7 541 686 541C640.3 541 594.7 541 548.8 541C503 541 457 541 411.2 541C365.3 541 319.7 541 274 541C228.3 541 182.7 541 137 541C91.3 541 45.7 541 22.8 541L0 541Z" fill="#008cff"></path><path d="M0 467L22.8 467.7C45.7 468.3 91.3 469.7 137 469.5C182.7 469.3 228.3 467.7 274 468.8C319.7 470 365.3 474 411.2 468.7C457 463.3 503 448.7 548.8 450.2C594.7 451.7 640.3 469.3 686 476C731.7 482.7 777.3 478.3 823 475.5C868.7 472.7 914.3 471.3 937.2 470.7L960 470L960 541L937.2 541C914.3 541 868.7 541 823 541C777.3 541 731.7 541 686 541C640.3 541 594.7 541 548.8 541C503 541 457 541 411.2 541C365.3 541 319.7 541 274 541C228.3 541 182.7 541 137 541C91.3 541 45.7 541 22.8 541L0 541Z" fill="#007aff"></path><path d="M0 480L22.8 483.2C45.7 486.3 91.3 492.7 137 497.8C182.7 503 228.3 507 274 505.8C319.7 504.7 365.3 498.3 411.2 491.8C457 485.3 503 478.7 548.8 476.7C594.7 474.7 640.3 477.3 686 481.8C731.7 486.3 777.3 492.7 823 492.2C868.7 491.7 914.3 484.3 937.2 480.7L960 477L960 541L937.2 541C914.3 541 868.7 541 823 541C777.3 541 731.7 541 686 541C640.3 541 594.7 541 548.8 541C503 541 457 541 411.2 541C365.3 541 319.7 541 274 541C228.3 541 182.7 541 137 541C91.3 541 45.7 541 22.8 541L0 541Z" fill="#0066ff"></path></svg>